<?xml version="1.0" encoding="UTF-8" standalone="no"?>
<!-- Created with Inkscape (http://www.inkscape.org/) -->

<svg
   version="1.1"
   id="svg1"
   width="361.05518"
   height="320.61279"
   viewBox="0 0 361.05518 320.61279"
   sodipodi:docname="Website Phone V.ai"
   inkscape:export-filename="Website Phone V.ai.png"
   inkscape:export-xdpi="96"
   inkscape:export-ydpi="96"
   xmlns:inkscape="http://www.inkscape.org/namespaces/inkscape"
   xmlns:sodipodi="http://sodipodi.sourceforge.net/DTD/sodipodi-0.dtd"
   xmlns="http://www.w3.org/2000/svg"
   xmlns:svg="http://www.w3.org/2000/svg">
  <defs
     id="defs1">
    <clipPath
       clipPathUnits="userSpaceOnUse"
       id="clipPath3">
      <path
         d="M 0,1963.535 H 1080 V 0 H 0 Z"
         transform="translate(-553.60081,-1777.2957)"
         id="path3" />
    </clipPath>
    <clipPath
       clipPathUnits="userSpaceOnUse"
       id="clipPath5">
      <path
         d="M 0,1963.535 H 1080 V 0 H 0 Z"
         transform="translate(-555.59902,-1756.3943)"
         id="path5" />
    </clipPath>
    <clipPath
       clipPathUnits="userSpaceOnUse"
       id="clipPath7">
      <path
         d="M 0,1963.535 H 1080 V 0 H 0 Z"
         transform="translate(-585.96601,-1794.7825)"
         id="path7" />
    </clipPath>
    <clipPath
       clipPathUnits="userSpaceOnUse"
       id="clipPath9">
      <path
         d="M 0,1963.535 H 1080 V 0 H 0 Z"
         transform="translate(-472.90961,-1817.2821)"
         id="path9" />
    </clipPath>
    <clipPath
       clipPathUnits="userSpaceOnUse"
       id="clipPath11">
      <path
         d="M 0,1963.535 H 1080 V 0 H 0 Z"
         transform="translate(-607.09052,-1711.5577)"
         id="path11" />
    </clipPath>
    <clipPath
       clipPathUnits="userSpaceOnUse"
       id="clipPath13">
      <path
         d="M 0,1963.535 H 1080 V 0 H 0 Z"
         transform="translate(-607.09052,-1817.2821)"
         id="path13" />
    </clipPath>
    <clipPath
       clipPathUnits="userSpaceOnUse"
       id="clipPath15">
      <path
         d="M 0,1963.535 H 1080 V 0 H 0 Z"
         transform="translate(-494.03411,-1788.3745)"
         id="path15" />
    </clipPath>
    <clipPath
       clipPathUnits="userSpaceOnUse"
       id="clipPath17">
      <path
         d="M 0,1963.535 H 1080 V 0 H 0 Z"
         transform="translate(-585.96581,-1740.4653)"
         id="path17" />
    </clipPath>
    <clipPath
       clipPathUnits="userSpaceOnUse"
       id="clipPath19">
      <path
         d="M 0,1963.535 H 1080 V 0 H 0 Z"
         transform="translate(-585.96581,-1788.3745)"
         id="path19" />
    </clipPath>
    <clipPath
       clipPathUnits="userSpaceOnUse"
       id="clipPath21">
      <path
         d="M 0,1963.535 H 1080 V 0 H 0 Z"
         transform="translate(-494.03411,-1740.4653)"
         id="path21" />
    </clipPath>
    <clipPath
       clipPathUnits="userSpaceOnUse"
       id="clipPath23">
      <path
         d="M 0,1963.535 H 1080 V 0 H 0 Z"
         transform="translate(-472.90961,-1711.5577)"
         id="path23" />
    </clipPath>
    <clipPath
       clipPathUnits="userSpaceOnUse"
       id="clipPath25">
      <path
         d="M 0,1963.535 H 1080 V 0 H 0 Z"
         transform="translate(-436.00891,-1640.9467)"
         id="path25" />
    </clipPath>
    <clipPath
       clipPathUnits="userSpaceOnUse"
       id="clipPath27">
      <path
         d="M 0,1963.535 H 1080 V 0 H 0 Z"
         transform="translate(-437.87071,-1621.4724)"
         id="path27" />
    </clipPath>
    <clipPath
       clipPathUnits="userSpaceOnUse"
       id="clipPath29">
      <path
         d="M 0,1963.535 H 1080 V 0 H 0 Z"
         transform="translate(-489.03631,-1638.9355)"
         id="path29" />
    </clipPath>
    <clipPath
       clipPathUnits="userSpaceOnUse"
       id="clipPath31">
      <path
         d="M 0,1963.535 H 1080 V 0 H 0 Z"
         transform="translate(-461.22731,-1649.3795)"
         id="path31" />
    </clipPath>
    <clipPath
       clipPathUnits="userSpaceOnUse"
       id="clipPath33">
      <path
         d="M 0,1963.535 H 1080 V 0 H 0 Z"
         transform="translate(-476.55301,-1627.7454)"
         id="path33" />
    </clipPath>
    <clipPath
       clipPathUnits="userSpaceOnUse"
       id="clipPath35">
      <path
         d="M 0,1963.535 H 1080 V 0 H 0 Z"
         transform="translate(-512.13442,-1651.7925)"
         id="path35" />
    </clipPath>
    <clipPath
       clipPathUnits="userSpaceOnUse"
       id="clipPath37">
      <path
         d="M 0,1963.535 H 1080 V 0 H 0 Z"
         transform="translate(-678.67112,-1650.1705)"
         id="path37" />
    </clipPath>
    <clipPath
       clipPathUnits="userSpaceOnUse"
       id="clipPath39">
      <path
         d="M 0,1963.535 H 1080 V 0 H 0 Z"
         transform="translate(-654.40361,-1630.0793)"
         id="path39" />
    </clipPath>
    <clipPath
       clipPathUnits="userSpaceOnUse"
       id="clipPath41">
      <path
         d="M 0,1963.535 H 1080 V 0 H 0 Z"
         transform="translate(-572.54471,-1629.8077)"
         id="path41" />
    </clipPath>
    <clipPath
       clipPathUnits="userSpaceOnUse"
       id="clipPath43">
      <path
         d="M 0,1963.535 H 1080 V 0 H 0 Z"
         transform="translate(-611.54722,-1610.1854)"
         id="path43" />
    </clipPath>
    <clipPath
       clipPathUnits="userSpaceOnUse"
       id="clipPath45">
      <path
         d="M 0,1963.535 H 1080 V 0 H 0 Z"
         transform="translate(-611.54722,-1610.1854)"
         id="path45" />
    </clipPath>
    <clipPath
       clipPathUnits="userSpaceOnUse"
       id="clipPath47">
      <path
         d="M 0,1963.535 H 1080 V 0 H 0 Z"
         transform="translate(-611.56952,-1649.4148)"
         id="path47" />
    </clipPath>
  </defs>
  <sodipodi:namedview
     id="namedview1"
     pagecolor="#ffffff"
     bordercolor="#000000"
     borderopacity="0.25"
     inkscape:showpageshadow="2"
     inkscape:pageopacity="0.0"
     inkscape:pagecheckerboard="0"
     inkscape:deskcolor="#d1d1d1"
     showgrid="false"
     inkscape:export-bgcolor="#ffffff00" />
  <g
     id="layer-MC0"
     inkscape:groupmode="layer"
     inkscape:label="Layer 1"
     transform="translate(-544.08228,-154.25453)">
    <path
       id="path2"
       d="m 0,0 c 0,-2.929 -0.926,-5.277 -2.8,-7.043 -1.895,-1.766 -4.566,-2.649 -8.012,-2.649 H -27.849 V 9.046 h 17.037 c 3.446,0 6.117,-0.883 8.012,-2.649 C -0.926,4.63 0,2.972 0,0 Z"
       style="fill:none;stroke:#fffffa;stroke-width:4;stroke-linecap:butt;stroke-linejoin:miter;stroke-miterlimit:10;stroke-dasharray:none;stroke-opacity:1"
       transform="matrix(1.3333333,0,0,-1.3333333,738.1344,248.3124)"
       clip-path="url(#clipPath3)" />
    <path
       id="path4"
       d="m 0,0 c 0,-3.63 -1.148,-6.539 -3.47,-8.727 -2.348,-2.189 -5.658,-3.283 -9.928,-3.283 h -16.449 v 23.219 h 16.449 c 4.27,0 7.58,-1.094 9.928,-3.282 C -1.148,5.738 0,3.683 0,0 Z"
       style="fill:none;stroke:#fffffa;stroke-width:4;stroke-linecap:butt;stroke-linejoin:miter;stroke-miterlimit:10;stroke-dasharray:none;stroke-opacity:1"
       transform="matrix(1.3333333,0,0,-1.3333333,740.79867,276.18093)"
       clip-path="url(#clipPath5)" />
    <path
       id="path6"
       d="m 0,0 v -60.725 c 0,-8.603 -7.009,-15.596 -15.612,-15.596 h -60.709 c -8.603,0 -15.611,6.993 -15.611,15.596 V 0 c 0,8.603 7.008,15.596 15.611,15.596 h 60.709 C -7.009,15.596 0,8.603 0,0 Z"
       style="fill:none;stroke:#fffffa;stroke-width:4;stroke-linecap:butt;stroke-linejoin:miter;stroke-miterlimit:10;stroke-dasharray:none;stroke-opacity:1"
       transform="matrix(1.3333333,0,0,-1.3333333,781.288,224.99667)"
       clip-path="url(#clipPath7)" />
    <path
       id="path8"
       d="M 0,0 C 7.869,0 14.271,6.401 14.271,14.27 14.271,22.148 7.869,28.557 0,28.557 -7.868,28.557 -14.27,22.148 -14.27,14.27 -14.27,6.401 -7.868,0 0,0 Z"
       style="fill:none;stroke:#fffffa;stroke-width:4;stroke-linecap:butt;stroke-linejoin:miter;stroke-miterlimit:10;stroke-dasharray:none;stroke-opacity:1"
       transform="matrix(1.3333333,0,0,-1.3333333,630.54613,194.9972)"
       clip-path="url(#clipPath9)" />
    <path
       id="path10"
       d="m 0,0 c -7.869,0 -14.271,-6.401 -14.271,-14.27 0,-7.878 6.402,-14.287 14.271,-14.287 7.868,0 14.27,6.409 14.27,14.287 C 14.27,-6.401 7.868,0 0,0 Z"
       style="fill:none;stroke:#fffffa;stroke-width:4;stroke-linecap:butt;stroke-linejoin:miter;stroke-miterlimit:10;stroke-dasharray:none;stroke-opacity:1"
       transform="matrix(1.3333333,0,0,-1.3333333,809.454,335.96307)"
       clip-path="url(#clipPath11)" />
    <path
       id="path12"
       d="m 0,0 c -7.869,0 -14.271,6.401 -14.271,14.27 0,7.878 6.402,14.287 14.271,14.287 7.868,0 14.27,-6.409 14.27,-14.287 C 14.27,6.401 7.868,0 0,0 Z"
       style="fill:none;stroke:#fffffa;stroke-width:4;stroke-linecap:butt;stroke-linejoin:miter;stroke-miterlimit:10;stroke-dasharray:none;stroke-opacity:1"
       transform="matrix(1.3333333,0,0,-1.3333333,809.454,194.9972)"
       clip-path="url(#clipPath13)"
       inkscape:export-filename="testc.svg"
       inkscape:export-xdpi="96"
       inkscape:export-ydpi="96" />
    <path
       id="path14"
       d="m 0,0 h -14.49 c -3.606,0 -6.539,2.933 -6.539,6.539 v 22.369"
       style="fill:none;stroke:#fffffa;stroke-width:4;stroke-linecap:butt;stroke-linejoin:miter;stroke-miterlimit:10;stroke-dasharray:none;stroke-opacity:1"
       transform="matrix(1.3333333,0,0,-1.3333333,658.71213,233.54067)"
       clip-path="url(#clipPath15)" />
    <path
       id="path16"
       d="m 0,0 h 14.49 c 3.606,0 6.539,-2.933 6.539,-6.539 v -22.369"
       style="fill:none;stroke:#fffffa;stroke-width:4;stroke-linecap:butt;stroke-linejoin:miter;stroke-miterlimit:10;stroke-dasharray:none;stroke-opacity:1"
       transform="matrix(1.3333333,0,0,-1.3333333,781.28773,297.4196)"
       clip-path="url(#clipPath17)" />
    <path
       id="path18"
       d="m 0,0 h 14.49 c 3.606,0 6.539,2.933 6.539,6.539 v 22.369"
       style="fill:none;stroke:#fffffa;stroke-width:4;stroke-linecap:butt;stroke-linejoin:miter;stroke-miterlimit:10;stroke-dasharray:none;stroke-opacity:1"
       transform="matrix(1.3333333,0,0,-1.3333333,781.28773,233.54067)"
       clip-path="url(#clipPath19)" />
    <path
       id="path20"
       d="m 0,0 h -14.49 c -3.606,0 -6.539,-2.933 -6.539,-6.539 v -22.369"
       style="fill:none;stroke:#fffffa;stroke-width:4;stroke-linecap:butt;stroke-linejoin:miter;stroke-miterlimit:10;stroke-dasharray:none;stroke-opacity:1"
       transform="matrix(1.3333333,0,0,-1.3333333,658.71213,297.4196)"
       clip-path="url(#clipPath21)" />
    <path
       id="path22"
       d="m 0,0 c 7.869,0 14.271,-6.401 14.271,-14.27 0,-7.878 -6.402,-14.287 -14.271,-14.287 -7.868,0 -14.27,6.409 -14.27,14.287 C -14.27,-6.401 -7.868,0 0,0 Z"
       style="fill:none;stroke:#fffffa;stroke-width:4;stroke-linecap:butt;stroke-linejoin:miter;stroke-miterlimit:10;stroke-dasharray:none;stroke-opacity:1"
       transform="matrix(1.3333333,0,0,-1.3333333,630.54613,335.96307)"
       clip-path="url(#clipPath23)" />
    <path
       id="path24"
       d="M 0,0 C 0,-2.729 -0.863,-4.917 -2.609,-6.562 -4.375,-8.208 -6.863,-9.03 -10.074,-9.03 H -25.947 V 8.428 h 15.873 c 3.211,0 5.699,-0.823 7.465,-2.468 C -0.863,4.314 0,2.769 0,0 Z"
       style="fill:none;stroke:#fffffa;stroke-width:4;stroke-linecap:butt;stroke-linejoin:miter;stroke-miterlimit:10;stroke-dasharray:none;stroke-opacity:1"
       transform="matrix(1.3333333,0,0,-1.3333333,581.3452,430.11107)"
       clip-path="url(#clipPath25)" />
    <path
       id="path26"
       d="m 0,0 c 0,-3.382 -1.069,-6.093 -3.233,-8.132 -2.188,-2.039 -5.272,-3.058 -9.25,-3.058 h -15.326 v 21.634 h 15.326 c 3.978,0 7.062,-1.02 9.25,-3.059 C -1.069,5.346 0,3.431 0,0 Z"
       style="fill:none;stroke:#fffffa;stroke-width:4;stroke-linecap:butt;stroke-linejoin:miter;stroke-miterlimit:10;stroke-dasharray:none;stroke-opacity:1"
       transform="matrix(1.3333333,0,0,-1.3333333,583.8276,456.0768)"
       clip-path="url(#clipPath27)" />
    <path
       id="path28"
       d="m 0,0 c 0,-3.382 -1.069,-6.093 -3.233,-8.132 -2.188,-2.039 -5.272,-3.058 -9.25,-3.058 h -15.326 v 21.634 h 15.326 c 3.978,0 7.062,-1.02 9.25,-3.059 C -1.069,5.346 0,3.431 0,0 Z"
       style="fill:none;stroke:#fffffa;stroke-width:4;stroke-linecap:butt;stroke-linejoin:miter;stroke-miterlimit:10;stroke-dasharray:none;stroke-opacity:1"
       transform="matrix(1.3333333,0,0,-1.3333333,652.0484,432.79267)"
       clip-path="url(#clipPath29)" />
    <path
       id="path30"
       d="M 0,0 V -41.621"
       style="fill:none;stroke:#fffffa;stroke-width:4;stroke-linecap:butt;stroke-linejoin:miter;stroke-miterlimit:10;stroke-dasharray:none;stroke-opacity:1"
       transform="matrix(1.3333333,0,0,-1.3333333,614.96973,418.86733)"
       clip-path="url(#clipPath31)" />
    <path
       id="path32"
       d="M 0,0 11.299,-18.74"
       style="fill:none;stroke:#fffffa;stroke-width:4;stroke-linecap:butt;stroke-linejoin:miter;stroke-miterlimit:10;stroke-dasharray:none;stroke-opacity:1"
       transform="matrix(1.3333333,0,0,-1.3333333,635.404,447.7128)"
       clip-path="url(#clipPath33)" />
    <path
       id="path34"
       d="M 0,0 V -44.034"
       style="fill:none;stroke:#fffffa;stroke-width:4;stroke-linecap:butt;stroke-linejoin:miter;stroke-miterlimit:10;stroke-dasharray:none;stroke-opacity:1"
       transform="matrix(1.3333333,0,0,-1.3333333,682.84587,415.65)"
       clip-path="url(#clipPath35)" />
    <path
       id="path36"
       d="M 0,0 H -24.268 V -40.791 H 0.182"
       style="fill:none;stroke:#fffffa;stroke-width:4;stroke-linecap:butt;stroke-linejoin:miter;stroke-miterlimit:10;stroke-dasharray:none;stroke-opacity:1"
       transform="matrix(1.3333333,0,0,-1.3333333,904.8948,417.81267)"
       clip-path="url(#clipPath37)" />
    <path
       id="path38"
       d="M 0,0 H 22.625"
       style="fill:none;stroke:#fffffa;stroke-width:4;stroke-linecap:butt;stroke-linejoin:miter;stroke-miterlimit:10;stroke-dasharray:none;stroke-opacity:1"
       transform="matrix(1.3333333,0,0,-1.3333333,872.53813,444.60093)"
       clip-path="url(#clipPath39)" />
    <path
       id="path40"
       d="m 0,0 c 0,-10.834 -8.783,-19.617 -19.617,-19.617 h -15.051 v 39.234 h 15.051 C -8.783,19.617 0,10.834 0,0 Z"
       style="fill:none;stroke:#fffffa;stroke-width:4;stroke-linecap:butt;stroke-linejoin:miter;stroke-miterlimit:10;stroke-dasharray:none;stroke-opacity:1"
       transform="matrix(1.3333333,0,0,-1.3333333,763.39293,444.96307)"
       clip-path="url(#clipPath41)" />
    <path
       id="path42"
       d="m 0,0 c -10.833,0.006 -19.61,8.793 -19.604,19.626 0.007,10.833 8.793,19.61 19.626,19.603"
       style="fill:none;stroke:#fffffa;stroke-width:4;stroke-linecap:butt;stroke-linejoin:miter;stroke-miterlimit:10;stroke-dasharray:none;stroke-opacity:1"
       transform="matrix(1.3333333,0,0,-1.3333333,815.39627,471.12613)"
       clip-path="url(#clipPath43)" />
    <path
       id="path44"
       d="M 0,0 C 9.753,-0.006 17.835,7.213 19.26,16.637 L 1.983,16.636"
       style="fill:none;stroke:#fffffa;stroke-width:4;stroke-linecap:butt;stroke-linejoin:miter;stroke-miterlimit:10;stroke-dasharray:none;stroke-opacity:1"
       transform="matrix(1.3333333,0,0,-1.3333333,815.39627,471.12613)"
       clip-path="url(#clipPath45)" />
    <path
       id="path46"
       d="M 0,0 C 6.548,-0.004 12.339,-3.263 15.866,-8.258"
       style="fill:none;stroke:#fffffa;stroke-width:4;stroke-linecap:butt;stroke-linejoin:miter;stroke-miterlimit:10;stroke-dasharray:none;stroke-opacity:1"
       transform="matrix(1.3333333,0,0,-1.3333333,815.426,418.82027)"
       clip-path="url(#clipPath47)" />
    <path
       id="path1588"
       style="fill:#2d4260;fill-opacity:1;stroke:#2d4260;stroke-width:0.66246;stroke-opacity:1"
       d="m 693.16406,207.10156 c -20.69932,0.11874 -21.14217,1.00604 -25.22461,4.75391 -1.66678,1.53018 -3.72797,4.27198 -4.58007,6.09375 l -1.55079,3.3125 -0.006,43.80469 c -0.007,46.92835 -0.0282,46.57269 3.33985,51.30273 1.83295,2.57415 5.34194,5.20124 8.41211,6.29688 3.38168,1.20681 89.44088,1.26843 92.70117,0.0664 3.95275,-1.45733 7.77985,-4.74663 9.81445,-8.43554 l 1.98828,-3.60352 0.1875,-43.64063 c 0.21211,-49.13802 0.29621,-48.14265 -4.48828,-53.57812 -1.46859,-1.6684 -4.08203,-3.72782 -5.80859,-4.57813 l -3.14063,-1.54687 -43.30859,-0.1875 c -12.2858,-0.0535 -21.43616,-0.10013 -28.33594,-0.0606 z m 5.06836,26.41602 15.40235,0.006 c 14.79051,0.006 15.53588,0.0682 18.76171,1.57031 7.94515,3.69963 10.97704,12.90317 6.9004,20.94727 -0.64626,1.27522 -1.78627,2.87136 -2.53321,3.54687 -1.35632,1.2266 -1.35418,1.23175 1.85547,4.44141 3.81725,3.81724 4.96337,6.74118 4.91797,12.54687 -0.0609,7.79529 -3.76834,13.56037 -10.82227,16.82422 -2.74623,1.27068 -4.41779,1.41455 -18.75,1.61328 l -15.73242,0.2168 V 264.375 Z m 5.96289,5.14648 v 9.68164 9.68164 h 12.15625 c 11.53669,0 12.27219,-0.0769 14.40821,-1.5039 6.20531,-4.14543 5.81924,-12.66029 -0.72852,-16.03711 -1.04981,-0.54141 -6.0825,-1.03103 -13.74609,-1.33789 z m 0,25.18164 v 12.65821 12.66015 l 11.09571,-0.004 c 6.10289,-0.002 12.28129,-0.334 13.73046,-0.73633 6.38891,-1.7737 10.59997,-10.07836 8.25196,-16.27539 -0.96261,-2.54061 -3.08547,-4.70453 -6.25,-6.3711 -2.34511,-1.23502 -4.03875,-1.42616 -14.73828,-1.66406 z"
       inkscape:export-filename="testa.png"
       inkscape:export-xdpi="96"
       inkscape:export-ydpi="96" />
  </g>
</svg>
