<?xml version="1.0" encoding="UTF-8" standalone="no"?>
<!-- Created with Inkscape (http://www.inkscape.org/) -->

<svg
   version="1.1"
   id="svg1"
   width="32.600098"
   height="32.60133"
   viewBox="0 0 32.600098 32.60133"
   xmlns="http://www.w3.org/2000/svg"
   xmlns:svg="http://www.w3.org/2000/svg">
  <defs
     id="defs1">
    <clipPath
       clipPathUnits="userSpaceOnUse"
       id="clipPath69">
      <path
         d="M 0,915 H 1920 V 0 H 0 Z"
         transform="translate(-1637.3718,-886.13672)"
         id="path69" />
    </clipPath>
    <clipPath
       clipPathUnits="userSpaceOnUse"
       id="clipPath71">
      <path
         d="M 0,915 H 1920 V 0 H 0 Z"
         transform="translate(-1637.3718,-869.83622)"
         id="path71" />
    </clipPath>
    <clipPath
       clipPathUnits="userSpaceOnUse"
       id="clipPath73">
      <path
         d="M 0,915 H 1920 V 0 H 0 Z"
         transform="translate(-1645.3647,-880.43732)"
         id="path73" />
    </clipPath>
  </defs>
  <g
     id="layer-MC0"
     transform="translate(-2166.8623,-38.484402)">
    <path
       id="path68"
       d="m 0,0 c -3.32,0 -3.737,-0.014 -5.041,-0.074 -1.301,-0.059 -2.189,-0.266 -2.967,-0.568 -0.804,-0.312 -1.486,-0.73 -2.165,-1.41 -0.68,-0.68 -1.098,-1.361 -1.41,-2.165 -0.303,-0.778 -0.509,-1.667 -0.569,-2.968 -0.059,-1.304 -0.073,-1.72 -0.073,-5.04 0,-3.321 0.014,-3.737 0.073,-5.041 0.06,-1.301 0.266,-2.19 0.569,-2.967 0.312,-0.804 0.73,-1.486 1.41,-2.166 0.679,-0.679 1.361,-1.097 2.165,-1.41 0.778,-0.302 1.666,-0.509 2.967,-0.568 1.304,-0.06 1.721,-0.074 5.041,-0.074 3.32,0 3.737,0.014 5.041,0.074 1.301,0.059 2.189,0.266 2.967,0.568 0.804,0.313 1.486,0.731 2.165,1.41 0.68,0.68 1.098,1.362 1.41,2.166 0.303,0.777 0.509,1.666 0.569,2.967 0.059,1.304 0.073,1.72 0.073,5.041 0,3.32 -0.014,3.736 -0.073,5.04 -0.06,1.301 -0.266,2.19 -0.569,2.968 -0.312,0.804 -0.73,1.485 -1.41,2.165 -0.679,0.68 -1.361,1.098 -2.165,1.41 C 7.23,-0.34 6.342,-0.133 5.041,-0.074 3.737,-0.014 3.32,0 0,0 m 0,-2.203 c 3.264,0 3.651,-0.012 4.94,-0.071 1.192,-0.054 1.839,-0.254 2.27,-0.421 0.571,-0.222 0.978,-0.487 1.406,-0.914 0.428,-0.428 0.693,-0.836 0.914,-1.406 0.168,-0.431 0.367,-1.078 0.421,-2.27 0.059,-1.289 0.072,-1.676 0.072,-4.94 0,-3.265 -0.013,-3.651 -0.072,-4.94 -0.054,-1.192 -0.253,-1.84 -0.421,-2.27 -0.221,-0.571 -0.486,-0.978 -0.914,-1.406 -0.428,-0.428 -0.835,-0.693 -1.406,-0.915 -0.431,-0.167 -1.078,-0.366 -2.27,-0.421 -1.289,-0.058 -1.675,-0.071 -4.94,-0.071 -3.265,0 -3.651,0.013 -4.94,0.071 -1.192,0.055 -1.839,0.254 -2.27,0.421 -0.571,0.222 -0.978,0.487 -1.406,0.915 -0.428,0.428 -0.693,0.835 -0.914,1.406 -0.168,0.43 -0.367,1.078 -0.421,2.27 -0.059,1.289 -0.072,1.675 -0.072,4.94 0,3.264 0.013,3.651 0.072,4.94 0.054,1.192 0.253,1.839 0.421,2.27 0.221,0.57 0.486,0.978 0.914,1.406 0.428,0.427 0.835,0.692 1.406,0.914 0.431,0.167 1.078,0.367 2.27,0.421 1.289,0.059 1.676,0.071 4.94,0.071"
       style="fill:#fffffa;fill-opacity:1;fill-rule:nonzero;stroke:none"
       transform="matrix(1.3333333,0,0,-1.3333333,2183.1623,38.4844)"
       clip-path="url(#clipPath69)" />
    <path
       id="path70"
       d="M 0,0 C -2.251,0 -4.075,1.824 -4.075,4.075 -4.075,6.326 -2.251,8.15 0,8.15 2.251,8.15 4.075,6.326 4.075,4.075 4.075,1.824 2.251,0 0,0 m 0,10.353 c -3.467,0 -6.278,-2.811 -6.278,-6.278 0,-3.467 2.811,-6.278 6.278,-6.278 3.467,0 6.278,2.811 6.278,6.278 0,3.467 -2.811,6.278 -6.278,6.278"
       style="fill:#fffffa;fill-opacity:1;fill-rule:nonzero;stroke:none"
       transform="matrix(1.3333333,0,0,-1.3333333,2183.1623,60.2184)"
       clip-path="url(#clipPath71)" />
    <path
       id="path72"
       d="m 0,0 c 0,-0.81 -0.657,-1.467 -1.467,-1.467 -0.81,0 -1.467,0.657 -1.467,1.467 0,0.81 0.657,1.467 1.467,1.467 C -0.657,1.467 0,0.81 0,0"
       style="fill:#fffffa;fill-opacity:1;fill-rule:nonzero;stroke:none"
       transform="matrix(1.3333333,0,0,-1.3333333,2193.8195,46.0836)"
       clip-path="url(#clipPath73)" />
  </g>
</svg>
