<?xml version="1.0" encoding="UTF-8" standalone="no"?>
<!-- Created with Inkscape (http://www.inkscape.org/) -->

<svg
   version="1.1"
   id="svg1"
   width="28.654541"
   height="28.577316"
   viewBox="0 0 28.654541 28.577316"
   xmlns="http://www.w3.org/2000/svg"
   xmlns:svg="http://www.w3.org/2000/svg">
  <defs
     id="defs1">
    <clipPath
       clipPathUnits="userSpaceOnUse"
       id="clipPath77">
      <path
         d="M 0,915 H 1920 V 0 H 0 Z"
         transform="translate(-1709.0208,-877.08612)"
         id="path77" />
    </clipPath>
    <clipPath
       clipPathUnits="userSpaceOnUse"
       id="clipPath79">
      <path
         d="M 0,915 H 1920 V 0 H 0 Z"
         transform="translate(-1701.9501,-871.84122)"
         id="path79" />
    </clipPath>
    <clipPath
       clipPathUnits="userSpaceOnUse"
       id="clipPath81">
      <path
         d="M 0,915 H 1920 V 0 H 0 Z"
         transform="translate(-1702.3059,-883.57312)"
         id="path81" />
    </clipPath>
  </defs>
  <g
     id="layer-MC0"
     transform="translate(-2262.8701,-38.483864)">
    <path
       id="path76"
       d="M 0,0 C 0.298,0.335 0.543,0.674 0.849,0.963 1.789,1.849 2.902,2.296 4.201,2.285 4.914,2.279 5.62,2.227 6.308,2.029 7.882,1.573 8.796,0.49 9.233,-1.047 9.56,-2.201 9.62,-3.384 9.622,-4.572 9.626,-7.077 9.615,-9.582 9.62,-12.087 c 0.001,-0.234 -0.065,-0.296 -0.296,-0.294 -1.29,0.011 -2.581,0.011 -3.871,0 -0.227,-0.002 -0.276,0.068 -0.276,0.283 0.008,2.383 0.009,4.767 0.002,7.15 -0.002,0.598 -0.04,1.195 -0.208,1.775 -0.309,1.07 -1.074,1.615 -2.195,1.556 C 1.246,-1.698 0.45,-2.456 0.255,-4.012 0.208,-4.383 0.186,-4.755 0.186,-5.13 c 0.002,-2.318 -0.002,-4.636 0.007,-6.954 0,-0.231 -0.058,-0.299 -0.294,-0.297 -1.299,0.011 -2.599,0.01 -3.899,10e-4 -0.208,-0.002 -0.269,0.055 -0.268,0.265 0.005,4.59 0.005,9.179 -0.001,13.769 0,0.227 0.074,0.279 0.289,0.278 1.235,-0.01 2.469,-0.011 3.703,0 C -0.05,1.934 0.009,1.861 0.004,1.646 -0.008,1.097 0,0.549 0,0"
       style="fill:#fffffa;fill-opacity:1;fill-rule:nonzero;stroke:none"
       transform="matrix(1.3333333,0,0,-1.3333333,2278.6944,50.551867)"
       clip-path="url(#clipPath77)" />
    <path
       id="path78"
       d="m 0,0 c 0,-2.27 -0.004,-4.541 0.005,-6.811 0.001,-0.253 -0.061,-0.329 -0.323,-0.326 -1.289,0.014 -2.58,0.011 -3.869,0.002 -0.207,-0.002 -0.27,0.05 -0.269,0.264 0.006,4.597 0.005,9.194 0.001,13.791 0,0.19 0.046,0.258 0.248,0.256 C -2.899,7.168 -1.59,7.165 -0.281,7.178 -0.03,7.18 0.005,7.083 0.004,6.867 -0.002,4.578 0,2.289 0,0"
       style="fill:#fffffa;fill-opacity:1;fill-rule:nonzero;stroke:none"
       transform="matrix(1.3333333,0,0,-1.3333333,2269.2668,57.545067)"
       clip-path="url(#clipPath79)" />
    <path
       id="path80"
       d="m 0,0 c 0.001,-1.425 -1.156,-2.587 -2.578,-2.587 -1.404,-10e-4 -2.571,1.161 -2.575,2.565 -0.005,1.419 1.161,2.587 2.581,2.586 C -1.163,2.562 -0.001,1.405 0,0"
       style="fill:#fffffa;fill-opacity:1;fill-rule:nonzero;stroke:none"
       transform="matrix(1.3333333,0,0,-1.3333333,2269.7411,41.902533)"
       clip-path="url(#clipPath81)" />
  </g>
</svg>
